<svg width="573" height="30" viewBox="0 0 573 30" fill="none" xmlns="http://www.w3.org/2000/svg">
<path d="M11.16 29.56C5.6 29.56 1.72 26.92 0.16 22.64L4.88 19.88C5.96 22.72 8.12 24.16 11.32 24.16C14.4 24.16 15.8 22.92 15.8 21.2C15.8 20.2 15.36 19.44 14.48 18.92C13.6 18.36 12.04 17.76 9.76 17.12C7.24 16.36 5.72 15.76 3.96 14.52C2.24 13.24 1.32 11.32 1.32 8.76C1.32 6.24 2.2 4.2 4 2.72C5.8 1.2 8 0.439998 10.52 0.439998C15.04 0.439998 18.6 2.76 20.52 6.72L15.88 9.4C14.76 7 12.96 5.8 10.52 5.8C8.24 5.8 6.84 6.96 6.84 8.6C6.84 9.48 7.2 10.2 7.92 10.76C8.68 11.28 10.08 11.88 12.16 12.52L14.08 13.16C14.52 13.28 15.12 13.52 15.88 13.84C16.64 14.12 17.24 14.4 17.64 14.68C18.48 15.2 19.76 16.2 20.28 17.16C20.88 18.12 21.32 19.52 21.32 21.12C21.32 23.72 20.36 25.76 18.48 27.28C16.6 28.8 14.16 29.56 11.16 29.56ZM61.7684 17.44V23.72H73.5684V29H56.2484V0.999998H73.3684V6.28H61.7684V12.24H72.3684V17.44H61.7684Z" fill="#124B92"/>
<path d="M34.2003 29.56C31.2003 29.56 28.6803 28.56 26.6403 26.52C24.6403 24.48 23.6403 22 23.6403 19C23.6403 16 24.6403 13.52 26.6403 11.48C28.6803 9.44 31.2003 8.44 34.2003 8.44C38.0803 8.44 41.5203 10.44 43.1603 13.6L38.7203 16.2C37.9203 14.56 36.2003 13.52 34.1603 13.52C31.0803 13.52 28.8003 15.8 28.8003 19C28.8003 20.56 29.3203 21.88 30.3203 22.92C31.3203 23.92 32.6003 24.44 34.1603 24.44C36.2403 24.44 37.9603 23.44 38.7603 21.8L43.2403 24.36C41.4803 27.52 38.0803 29.56 34.2003 29.56ZM48.6856 7.24C46.9656 7.24 45.5256 5.84 45.5256 4.16C45.5256 2.48 46.9656 1.04 48.6856 1.04C50.4456 1.04 51.8856 2.48 51.8856 4.16C51.8856 5.84 50.4456 7.24 48.6856 7.24ZM51.2856 29H46.1256V9H51.2856V29ZM86.7394 29.56C83.7394 29.56 81.2194 28.56 79.1794 26.52C77.1794 24.48 76.1794 22 76.1794 19C76.1794 16 77.1794 13.52 79.1794 11.48C81.2194 9.44 83.7394 8.44 86.7394 8.44C90.6194 8.44 94.0594 10.44 95.6994 13.6L91.2594 16.2C90.4594 14.56 88.7394 13.52 86.6994 13.52C83.6194 13.52 81.3394 15.8 81.3394 19C81.3394 20.56 81.8594 21.88 82.8594 22.92C83.8594 23.92 85.1394 24.44 86.6994 24.44C88.7794 24.44 90.4994 23.44 91.2994 21.8L95.7794 24.36C94.0194 27.52 90.6194 29.56 86.7394 29.56ZM115.705 26.52C113.665 28.56 111.145 29.56 108.185 29.56C105.225 29.56 102.705 28.56 100.665 26.52C98.6247 24.48 97.6247 21.96 97.6247 19C97.6247 16.04 98.6247 13.56 100.665 11.52C102.705 9.48 105.225 8.44 108.185 8.44C111.145 8.44 113.665 9.48 115.705 11.52C117.745 13.56 118.785 16.04 118.785 19C118.785 21.96 117.745 24.48 115.705 26.52ZM104.305 22.96C105.345 24 106.625 24.52 108.185 24.52C109.745 24.52 111.025 24 112.065 22.96C113.105 21.92 113.625 20.6 113.625 19C113.625 17.4 113.105 16.08 112.065 15.04C111.025 14 109.745 13.48 108.185 13.48C106.625 13.48 105.345 14 104.305 15.04C103.305 16.08 102.785 17.4 102.785 19C102.785 20.6 103.305 21.92 104.305 22.96ZM147.655 19.4H132.655V14.44H147.655V19.4ZM172.41 29.56C166.85 29.56 162.97 26.92 161.41 22.64L166.13 19.88C167.21 22.72 169.37 24.16 172.57 24.16C175.65 24.16 177.05 22.92 177.05 21.2C177.05 20.2 176.61 19.44 175.73 18.92C174.85 18.36 173.29 17.76 171.01 17.12C168.49 16.36 166.97 15.76 165.21 14.52C163.49 13.24 162.57 11.32 162.57 8.76C162.57 6.24 163.45 4.2 165.25 2.72C167.05 1.2 169.25 0.439998 171.77 0.439998C176.29 0.439998 179.85 2.76 181.77 6.72L177.13 9.4C176.01 7 174.21 5.8 171.77 5.8C169.49 5.8 168.09 6.96 168.09 8.6C168.09 9.48 168.45 10.2 169.17 10.76C169.93 11.28 171.33 11.88 173.41 12.52L175.33 13.16C175.77 13.28 176.37 13.52 177.13 13.84C177.89 14.12 178.49 14.4 178.89 14.68C179.73 15.2 181.01 16.2 181.53 17.16C182.13 18.12 182.57 19.52 182.57 21.12C182.57 23.72 181.61 25.76 179.73 27.28C177.85 28.8 175.41 29.56 172.41 29.56ZM195.45 29.56C192.45 29.56 189.93 28.56 187.89 26.52C185.89 24.48 184.89 22 184.89 19C184.89 16 185.89 13.52 187.89 11.48C189.93 9.44 192.45 8.44 195.45 8.44C199.33 8.44 202.77 10.44 204.41 13.6L199.97 16.2C199.17 14.56 197.45 13.52 195.41 13.52C192.33 13.52 190.05 15.8 190.05 19C190.05 20.56 190.57 21.88 191.57 22.92C192.57 23.92 193.85 24.44 195.41 24.44C197.49 24.44 199.21 23.44 200.01 21.8L204.49 24.36C202.73 27.52 199.33 29.56 195.45 29.56ZM209.936 7.24C208.216 7.24 206.776 5.84 206.776 4.16C206.776 2.48 208.216 1.04 209.936 1.04C211.696 1.04 213.136 2.48 213.136 4.16C213.136 5.84 211.696 7.24 209.936 7.24ZM212.536 29H207.376V9H212.536V29ZM236.698 21.12H221.618C222.298 23.64 224.178 24.88 227.258 24.88C229.218 24.88 230.738 24.2 231.738 22.88L235.898 25.28C233.938 28.12 231.018 29.56 227.178 29.56C223.858 29.56 221.218 28.56 219.218 26.56C217.218 24.56 216.218 22.04 216.218 19C216.218 16 217.218 13.48 219.178 11.48C221.138 9.44 223.698 8.44 226.778 8.44C229.698 8.44 232.138 9.44 234.018 11.48C235.938 13.52 236.898 16 236.898 19C236.898 19.68 236.818 20.36 236.698 21.12ZM221.538 17.12H231.738C231.138 14.4 229.138 13.08 226.778 13.08C224.018 13.08 222.138 14.56 221.538 17.12ZM251.621 8.44C253.821 8.44 255.621 9.16 257.021 10.64C258.461 12.12 259.181 14.12 259.181 16.72V29H254.021V17.36C254.021 14.68 252.461 13.24 250.061 13.24C247.381 13.24 245.661 14.88 245.661 18.2V29H240.501V9H245.661V11.24C246.901 9.36 248.901 8.44 251.621 8.44ZM273.107 29.56C270.107 29.56 267.587 28.56 265.547 26.52C263.547 24.48 262.547 22 262.547 19C262.547 16 263.547 13.52 265.547 11.48C267.587 9.44 270.107 8.44 273.107 8.44C276.987 8.44 280.427 10.44 282.067 13.6L277.627 16.2C276.827 14.56 275.107 13.52 273.067 13.52C269.987 13.52 267.707 15.8 267.707 19C267.707 20.56 268.227 21.88 269.227 22.92C270.227 23.92 271.507 24.44 273.067 24.44C275.147 24.44 276.867 23.44 277.667 21.8L282.147 24.36C280.387 27.52 276.987 29.56 273.107 29.56ZM304.472 21.12H289.392C290.072 23.64 291.952 24.88 295.032 24.88C296.992 24.88 298.512 24.2 299.512 22.88L303.672 25.28C301.712 28.12 298.792 29.56 294.952 29.56C291.632 29.56 288.992 28.56 286.992 26.56C284.992 24.56 283.992 22.04 283.992 19C283.992 16 284.992 13.48 286.952 11.48C288.912 9.44 291.472 8.44 294.552 8.44C297.472 8.44 299.912 9.44 301.792 11.48C303.712 13.52 304.672 16 304.672 19C304.672 19.68 304.592 20.36 304.472 21.12ZM289.312 17.12H299.512C298.912 14.4 296.912 13.08 294.552 13.08C291.792 13.08 289.912 14.56 289.312 17.12ZM329.034 0.439998V5.4C326.194 5.2 324.794 6.32 324.794 8.8V9H329.034V13.96H324.794V29H319.634V13.96H316.754V9H319.634V8.8C319.634 3.16 322.794 0.079998 329.034 0.439998ZM348.439 26.52C346.399 28.56 343.879 29.56 340.919 29.56C337.959 29.56 335.439 28.56 333.399 26.52C331.359 24.48 330.359 21.96 330.359 19C330.359 16.04 331.359 13.56 333.399 11.52C335.439 9.48 337.959 8.44 340.919 8.44C343.879 8.44 346.399 9.48 348.439 11.52C350.479 13.56 351.519 16.04 351.519 19C351.519 21.96 350.479 24.48 348.439 26.52ZM337.039 22.96C338.079 24 339.359 24.52 340.919 24.52C342.479 24.52 343.759 24 344.799 22.96C345.839 21.92 346.359 20.6 346.359 19C346.359 17.4 345.839 16.08 344.799 15.04C343.759 14 342.479 13.48 340.919 13.48C339.359 13.48 338.079 14 337.039 15.04C336.039 16.08 335.519 17.4 335.519 19C335.519 20.6 336.039 21.92 337.039 22.96ZM360.309 9V12.44C361.269 9.88 363.669 8.6 366.389 8.6V14.36C364.829 14.16 363.389 14.48 362.149 15.32C360.909 16.16 360.309 17.52 360.309 19.44V29H355.149V9H360.309ZM385.167 17.44V23.72H396.967V29H379.647V0.999998H396.767V6.28H385.167V12.24H395.767V17.44H385.167ZM410.138 29.56C407.138 29.56 404.618 28.56 402.578 26.52C400.578 24.48 399.578 22 399.578 19C399.578 16 400.578 13.52 402.578 11.48C404.618 9.44 407.138 8.44 410.138 8.44C414.018 8.44 417.458 10.44 419.098 13.6L414.658 16.2C413.858 14.56 412.138 13.52 410.098 13.52C407.018 13.52 404.738 15.8 404.738 19C404.738 20.56 405.258 21.88 406.258 22.92C407.258 23.92 408.538 24.44 410.098 24.44C412.178 24.44 413.898 23.44 414.698 21.8L419.178 24.36C417.418 27.52 414.018 29.56 410.138 29.56ZM439.103 26.52C437.063 28.56 434.543 29.56 431.583 29.56C428.623 29.56 426.103 28.56 424.063 26.52C422.023 24.48 421.023 21.96 421.023 19C421.023 16.04 422.023 13.56 424.063 11.52C426.103 9.48 428.623 8.44 431.583 8.44C434.543 8.44 437.063 9.48 439.103 11.52C441.143 13.56 442.183 16.04 442.183 19C442.183 21.96 441.143 24.48 439.103 26.52ZM427.703 22.96C428.743 24 430.023 24.52 431.583 24.52C433.143 24.52 434.423 24 435.463 22.96C436.503 21.92 437.023 20.6 437.023 19C437.023 17.4 436.503 16.08 435.463 15.04C434.423 14 433.143 13.48 431.583 13.48C430.023 13.48 428.743 14 427.703 15.04C426.703 16.08 426.183 17.4 426.183 19C426.183 20.6 426.703 21.92 427.703 22.96ZM456.933 8.44C459.133 8.44 460.933 9.16 462.333 10.64C463.773 12.12 464.493 14.12 464.493 16.72V29H459.333V17.36C459.333 14.68 457.773 13.24 455.373 13.24C452.693 13.24 450.973 14.88 450.973 18.2V29H445.813V9H450.973V11.24C452.213 9.36 454.213 8.44 456.933 8.44ZM485.939 26.52C483.899 28.56 481.379 29.56 478.419 29.56C475.459 29.56 472.939 28.56 470.899 26.52C468.859 24.48 467.859 21.96 467.859 19C467.859 16.04 468.859 13.56 470.899 11.52C472.939 9.48 475.459 8.44 478.419 8.44C481.379 8.44 483.899 9.48 485.939 11.52C487.979 13.56 489.019 16.04 489.019 19C489.019 21.96 487.979 24.48 485.939 26.52ZM474.539 22.96C475.579 24 476.859 24.52 478.419 24.52C479.979 24.52 481.259 24 482.299 22.96C483.339 21.92 483.859 20.6 483.859 19C483.859 17.4 483.339 16.08 482.299 15.04C481.259 14 479.979 13.48 478.419 13.48C476.859 13.48 475.579 14 474.539 15.04C473.539 16.08 473.019 17.4 473.019 19C473.019 20.6 473.539 21.92 474.539 22.96ZM514.769 8.44C519.369 8.44 522.329 11.68 522.329 16.68V29H517.169V17.04C517.169 14.64 515.929 13.24 513.809 13.24C511.449 13.24 510.089 14.84 510.089 17.76V29H504.929V17.04C504.929 14.64 503.689 13.24 501.569 13.24C499.289 13.24 497.809 14.84 497.809 17.76V29H492.649V9H497.809V11.12C499.009 9.32 500.849 8.44 503.369 8.44C505.809 8.44 507.649 9.4 508.809 11.32C510.129 9.4 512.129 8.44 514.769 8.44ZM529.272 7.24C527.552 7.24 526.112 5.84 526.112 4.16C526.112 2.48 527.552 1.04 529.272 1.04C531.032 1.04 532.472 2.48 532.472 4.16C532.472 5.84 531.032 7.24 529.272 7.24ZM531.872 29H526.712V9H531.872V29ZM546.114 29.56C543.114 29.56 540.594 28.56 538.554 26.52C536.554 24.48 535.554 22 535.554 19C535.554 16 536.554 13.52 538.554 11.48C540.594 9.44 543.114 8.44 546.114 8.44C549.994 8.44 553.434 10.44 555.074 13.6L550.634 16.2C549.834 14.56 548.114 13.52 546.074 13.52C542.994 13.52 540.714 15.8 540.714 19C540.714 20.56 541.234 21.88 542.234 22.92C543.234 23.92 544.514 24.44 546.074 24.44C548.154 24.44 549.874 23.44 550.674 21.8L555.154 24.36C553.394 27.52 549.994 29.56 546.114 29.56ZM562.604 14.68C562.604 15.76 564.204 16.36 566.244 16.88C569.164 17.48 572.964 18.88 572.924 23.16C572.924 25.2 572.164 26.8 570.604 27.92C569.084 29 567.164 29.56 564.884 29.56C560.764 29.56 557.964 27.96 556.484 24.8L560.964 22.28C561.564 24 562.844 24.88 564.884 24.88C566.724 24.88 567.644 24.32 567.644 23.16C567.644 22.08 566.044 21.48 564.004 20.96C561.044 20.2 557.324 18.96 557.324 14.8C557.324 12.84 558.044 11.28 559.484 10.16C560.964 9 562.764 8.44 564.924 8.44C568.164 8.44 570.964 9.96 572.524 12.68L568.124 15.08C567.484 13.72 566.404 13.04 564.924 13.04C563.604 13.04 562.604 13.68 562.604 14.68Z" fill="#3A3A3A"/>
</svg>
